<?xml version="1.0" encoding="UTF-8" standalone="no"?>
<!DOCTYPE svg PUBLIC "-//W3C//DTD SVG 1.1//EN"
 "http://www.w3.org/Graphics/SVG/1.1/DTD/svg11.dtd">
<!-- Generated by graphviz version 2.43.0 (0)
 -->
<!-- Title: %3 Pages: 1 -->
<svg width="999pt" height="332pt"
 viewBox="0.00 0.00 999.42 332.00" xmlns="http://www.w3.org/2000/svg" xmlns:xlink="http://www.w3.org/1999/xlink">
<g id="graph0" class="graph" transform="scale(1 1) rotate(0) translate(4 328)">
<title>%3</title>
<polygon fill="white" stroke="transparent" points="-4,4 -4,-328 995.42,-328 995.42,4 -4,4"/>
<!-- [root] aws_instance.linux&#45;64b -->
<g id="node1" class="node">
<title>[root] aws_instance.linux&#45;64b</title>
<polygon fill="none" stroke="black" points="547.44,-180 365.44,-180 365.44,-144 547.44,-144 547.44,-180"/>
<text text-anchor="middle" x="456.44" y="-158.3" font-family="Times,serif" font-size="14.00">aws_instance.linux&#45;64b</text>
</g>
<!-- [root] provider.aws -->
<g id="node2" class="node">
<title>[root] provider.aws</title>
<polygon fill="none" stroke="black" points="181.44,-108 82.4,-90 181.44,-72 280.48,-90 181.44,-108"/>
<text text-anchor="middle" x="181.44" y="-86.3" font-family="Times,serif" font-size="14.00">provider.aws</text>
</g>
<!-- [root] aws_instance.linux&#45;64b&#45;&gt;[root] provider.aws -->
<g id="edge1" class="edge">
<title>[root] aws_instance.linux&#45;64b&#45;&gt;[root] provider.aws</title>
<path fill="none" stroke="black" d="M389.52,-143.97C340.41,-131.46 274.8,-114.76 230.49,-103.49"/>
<polygon fill="black" stroke="black" points="231.1,-100.03 220.54,-100.95 229.37,-106.81 231.1,-100.03"/>
</g>
<!-- [root] var.ami -->
<g id="node3" class="node">
<title>[root] var.ami</title>
<ellipse fill="none" stroke="black" cx="372.44" cy="-90" rx="73.39" ry="18"/>
<text text-anchor="middle" x="372.44" y="-86.3" font-family="Times,serif" font-size="14.00">[root] var.ami</text>
</g>
<!-- [root] aws_instance.linux&#45;64b&#45;&gt;[root] var.ami -->
<g id="edge2" class="edge">
<title>[root] aws_instance.linux&#45;64b&#45;&gt;[root] var.ami</title>
<path fill="none" stroke="black" d="M435.68,-143.7C424.86,-134.68 411.5,-123.55 399.84,-113.83"/>
<polygon fill="black" stroke="black" points="402.02,-111.1 392.1,-107.38 397.54,-116.47 402.02,-111.1"/>
</g>
<!-- [root] var.tags -->
<g id="node4" class="node">
<title>[root] var.tags</title>
<ellipse fill="none" stroke="black" cx="540.44" cy="-90" rx="76.89" ry="18"/>
<text text-anchor="middle" x="540.44" y="-86.3" font-family="Times,serif" font-size="14.00">[root] var.tags</text>
</g>
<!-- [root] aws_instance.linux&#45;64b&#45;&gt;[root] var.tags -->
<g id="edge3" class="edge">
<title>[root] aws_instance.linux&#45;64b&#45;&gt;[root] var.tags</title>
<path fill="none" stroke="black" d="M477.21,-143.7C487.94,-134.75 501.19,-123.71 512.79,-114.05"/>
<polygon fill="black" stroke="black" points="515.05,-116.71 520.5,-107.62 510.57,-111.34 515.05,-116.71"/>
</g>
<!-- [root] var.type -->
<g id="node5" class="node">
<title>[root] var.type</title>
<ellipse fill="none" stroke="black" cx="712.44" cy="-90" rx="77.19" ry="18"/>
<text text-anchor="middle" x="712.44" y="-86.3" font-family="Times,serif" font-size="14.00">[root] var.type</text>
</g>
<!-- [root] aws_instance.linux&#45;64b&#45;&gt;[root] var.type -->
<g id="edge4" class="edge">
<title>[root] aws_instance.linux&#45;64b&#45;&gt;[root] var.type</title>
<path fill="none" stroke="black" d="M518.74,-143.97C560.17,-132.64 614.2,-117.86 654.66,-106.8"/>
<polygon fill="black" stroke="black" points="655.66,-110.16 664.38,-104.14 653.81,-103.4 655.66,-110.16"/>
</g>
<!-- [root] var.profile -->
<g id="node9" class="node">
<title>[root] var.profile</title>
<ellipse fill="none" stroke="black" cx="86.44" cy="-18" rx="86.38" ry="18"/>
<text text-anchor="middle" x="86.44" y="-14.3" font-family="Times,serif" font-size="14.00">[root] var.profile</text>
</g>
<!-- [root] provider.aws&#45;&gt;[root] var.profile -->
<g id="edge8" class="edge">
<title>[root] provider.aws&#45;&gt;[root] var.profile</title>
<path fill="none" stroke="black" d="M162.67,-75.17C149.75,-65.64 132.27,-52.77 117.31,-41.75"/>
<polygon fill="black" stroke="black" points="118.98,-38.62 108.85,-35.51 114.82,-44.26 118.98,-38.62"/>
</g>
<!-- [root] var.region -->
<g id="node10" class="node">
<title>[root] var.region</title>
<ellipse fill="none" stroke="black" cx="277.44" cy="-18" rx="86.38" ry="18"/>
<text text-anchor="middle" x="277.44" y="-14.3" font-family="Times,serif" font-size="14.00">[root] var.region</text>
</g>
<!-- [root] provider.aws&#45;&gt;[root] var.region -->
<g id="edge9" class="edge">
<title>[root] provider.aws&#45;&gt;[root] var.region</title>
<path fill="none" stroke="black" d="M200.41,-75.17C213.59,-65.56 231.46,-52.53 246.67,-41.44"/>
<polygon fill="black" stroke="black" points="248.78,-44.23 254.8,-35.51 244.66,-38.57 248.78,-44.23"/>
</g>
<!-- [root] meta.count&#45;boundary (count boundary fixup) -->
<g id="node6" class="node">
<title>[root] meta.count&#45;boundary (count boundary fixup)</title>
<ellipse fill="none" stroke="black" cx="744.44" cy="-234" rx="246.96" ry="18"/>
<text text-anchor="middle" x="744.44" y="-230.3" font-family="Times,serif" font-size="14.00">[root] meta.count&#45;boundary (count boundary fixup)</text>
</g>
<!-- [root] meta.count&#45;boundary (count boundary fixup)&#45;&gt;[root] aws_instance.linux&#45;64b -->
<g id="edge5" class="edge">
<title>[root] meta.count&#45;boundary (count boundary fixup)&#45;&gt;[root] aws_instance.linux&#45;64b</title>
<path fill="none" stroke="black" d="M677.28,-216.68C635.17,-206.44 580.67,-193.19 536.34,-182.42"/>
<polygon fill="black" stroke="black" points="537.01,-178.98 526.47,-180.02 535.36,-185.78 537.01,-178.98"/>
</g>
<!-- [root] var.ips -->
<g id="node7" class="node">
<title>[root] var.ips</title>
<ellipse fill="none" stroke="black" cx="744.44" cy="-162" rx="70.39" ry="18"/>
<text text-anchor="middle" x="744.44" y="-158.3" font-family="Times,serif" font-size="14.00">[root] var.ips</text>
</g>
<!-- [root] meta.count&#45;boundary (count boundary fixup)&#45;&gt;[root] var.ips -->
<g id="edge6" class="edge">
<title>[root] meta.count&#45;boundary (count boundary fixup)&#45;&gt;[root] var.ips</title>
<path fill="none" stroke="black" d="M744.44,-215.7C744.44,-207.98 744.44,-198.71 744.44,-190.11"/>
<polygon fill="black" stroke="black" points="747.94,-190.1 744.44,-180.1 740.94,-190.1 747.94,-190.1"/>
</g>
<!-- [root] provider.aws (close) -->
<g id="node8" class="node">
<title>[root] provider.aws (close)</title>
<ellipse fill="none" stroke="black" cx="347.44" cy="-234" rx="131.88" ry="18"/>
<text text-anchor="middle" x="347.44" y="-230.3" font-family="Times,serif" font-size="14.00">[root] provider.aws (close)</text>
</g>
<!-- [root] provider.aws (close)&#45;&gt;[root] aws_instance.linux&#45;64b -->
<g id="edge7" class="edge">
<title>[root] provider.aws (close)&#45;&gt;[root] aws_instance.linux&#45;64b</title>
<path fill="none" stroke="black" d="M373.55,-216.23C387.77,-207.1 405.56,-195.68 421.01,-185.76"/>
<polygon fill="black" stroke="black" points="423.27,-188.46 429.79,-180.12 419.48,-182.57 423.27,-188.46"/>
</g>
<!-- [root] root -->
<g id="node11" class="node">
<title>[root] root</title>
<ellipse fill="none" stroke="black" cx="545.44" cy="-306" rx="58.49" ry="18"/>
<text text-anchor="middle" x="545.44" y="-302.3" font-family="Times,serif" font-size="14.00">[root] root</text>
</g>
<!-- [root] root&#45;&gt;[root] meta.count&#45;boundary (count boundary fixup) -->
<g id="edge10" class="edge">
<title>[root] root&#45;&gt;[root] meta.count&#45;boundary (count boundary fixup)</title>
<path fill="none" stroke="black" d="M582.41,-292C611.77,-281.67 653.35,-267.04 687.03,-255.19"/>
<polygon fill="black" stroke="black" points="688.49,-258.39 696.76,-251.77 686.16,-251.79 688.49,-258.39"/>
</g>
<!-- [root] root&#45;&gt;[root] provider.aws (close) -->
<g id="edge11" class="edge">
<title>[root] root&#45;&gt;[root] provider.aws (close)</title>
<path fill="none" stroke="black" d="M508.66,-292C478.84,-281.45 436.35,-266.43 402.47,-254.46"/>
<polygon fill="black" stroke="black" points="403.31,-251.04 392.71,-251 400.97,-257.64 403.31,-251.04"/>
</g>
</g>
</svg>
